<svg width="241" height="199" viewBox="0 0 241 199" fill="none" xmlns="http://www.w3.org/2000/svg">
<path d="M240.995 99.5C240.995 73.1718 230.854 47.9215 212.804 29.3046C194.755 10.6877 170.274 0.228763 144.747 0.22876C119.221 0.228756 94.7403 10.6877 76.6903 29.3046C58.6403 47.9215 48.5 73.1718 48.5 99.5H78.5777C88.5445 99.5 96.3174 90.8852 99.9681 81.3194C102.365 75.0391 106.002 69.2675 110.719 64.4021C119.744 55.0937 131.984 49.8643 144.747 49.8643C157.511 49.8643 169.751 55.0937 178.776 64.4021C187.801 73.7106 192.871 86.3359 192.871 99.5H240.995Z" fill="url(#paint0_linear_5007_443)"/>
<path d="M185.555 137.489C190.392 125.445 192.882 112.536 192.882 99.5H241C241 154.326 197.908 198.771 144.753 198.771C136.428 198.771 128.35 197.681 120.646 195.632C125.005 194.473 129.289 192.998 133.466 191.214C145.143 186.225 155.754 178.913 164.691 169.695C173.629 160.477 180.718 149.533 185.555 137.489Z" fill="#FBCF8E"/>
<path d="M0.383789 99.5C0.383787 112.537 2.8733 125.446 7.71017 137.49C12.5471 149.534 19.6366 160.478 28.574 169.696C37.5114 178.913 48.1216 186.226 59.7989 191.215C71.4761 196.204 83.9916 198.771 96.6313 198.771C109.27 198.771 121.786 196.204 133.463 191.215C145.141 186.226 155.751 178.913 164.688 169.696C173.626 160.478 180.715 149.534 185.552 137.49C190.389 125.446 192.879 112.537 192.879 99.5H162.801C152.834 99.5 145.061 108.115 141.411 117.68C141.307 117.953 141.2 118.224 141.092 118.495C138.673 124.517 135.129 129.989 130.66 134.598C126.191 139.207 120.886 142.863 115.047 145.358C109.209 147.852 102.951 149.136 96.6313 149.136C90.3115 149.136 84.0537 147.852 78.2153 145.358C72.3763 142.863 67.0715 139.207 62.6025 134.598C58.1339 129.989 54.5891 124.517 52.1707 118.495C49.7522 112.473 48.5075 106.018 48.5075 99.5H0.383789Z" fill="url(#paint1_linear_5007_443)"/>
<path d="M0.395508 99.5C0.395508 44.6738 43.4868 0.22876 96.6425 0.22876C104.965 0.22876 113.041 1.31822 120.744 3.36651C104.216 7.75804 88.9688 16.6453 76.6946 29.3047C58.6448 47.9214 48.5046 73.1718 48.5046 99.5H0.395508Z" fill="#73E5E2"/>
<defs>
<linearGradient id="paint0_linear_5007_443" x1="240.995" y1="49.8643" x2="48.5" y2="49.8643" gradientUnits="userSpaceOnUse">
<stop stop-color="#73E5E2"/>
<stop offset="1" stop-color="#394F87"/>
</linearGradient>
<linearGradient id="paint1_linear_5007_443" x1="0.383795" y1="149.136" x2="192.879" y2="149.136" gradientUnits="userSpaceOnUse">
<stop stop-color="#FBDC8E"/>
<stop offset="1" stop-color="#FB958E"/>
</linearGradient>
</defs>
</svg>
