<svg width="331" height="47" viewBox="0 0 331 47" fill="none" xmlns="http://www.w3.org/2000/svg">
<path d="M323.373 17.1332V36.9256H316.635V11.6119H322.975L323.373 17.1332ZM331 11.4482L330.883 17.6947C330.555 17.6479 330.158 17.6089 329.69 17.5777C329.237 17.5309 328.824 17.5075 328.45 17.5075C327.498 17.5075 326.672 17.6323 325.97 17.8819C325.284 18.1158 324.707 18.4668 324.239 18.9347C323.786 19.4026 323.443 19.9718 323.209 20.6425C322.991 21.3132 322.866 22.0774 322.835 22.9352L321.478 22.5141C321.478 20.8765 321.642 19.3714 321.969 17.9988C322.297 16.6107 322.773 15.402 323.396 14.3726C324.036 13.3432 324.816 12.5478 325.736 11.9863C326.656 11.4248 327.709 11.144 328.894 11.144C329.269 11.144 329.651 11.1752 330.041 11.2376C330.431 11.2844 330.75 11.3546 331 11.4482Z" fill="#2B2B2B"/>
<path d="M301.972 37.3935C300.007 37.3935 298.245 37.0816 296.685 36.4577C295.125 35.8182 293.8 34.937 292.708 33.814C291.632 32.6911 290.805 31.3887 290.228 29.907C289.651 28.4097 289.362 26.8189 289.362 25.1344V24.1986C289.362 22.2802 289.635 20.5255 290.181 18.9347C290.727 17.3438 291.507 15.9635 292.521 14.7937C293.55 13.6239 294.798 12.7271 296.264 12.1032C297.73 11.4638 299.383 11.144 301.224 11.144C303.017 11.144 304.608 11.4404 305.996 12.0331C307.384 12.6257 308.546 13.468 309.482 14.5597C310.434 15.6515 311.151 16.9617 311.635 18.4901C312.118 20.003 312.36 21.6875 312.36 23.5435V26.3509H292.24V21.8591H305.739V21.3444C305.739 20.4086 305.567 19.5741 305.224 18.8411C304.897 18.0924 304.398 17.4997 303.727 17.063C303.056 16.6263 302.198 16.408 301.154 16.408C300.264 16.408 299.5 16.6029 298.861 16.9929C298.221 17.3828 297.699 17.9287 297.293 18.6305C296.903 19.3324 296.607 20.159 296.404 21.1104C296.217 22.0462 296.124 23.0756 296.124 24.1986V25.1344C296.124 26.1482 296.264 27.084 296.545 27.9418C296.841 28.7996 297.254 29.5405 297.785 30.1644C298.33 30.7882 298.986 31.2717 299.75 31.6149C300.53 31.958 301.411 32.1296 302.393 32.1296C303.61 32.1296 304.741 31.8956 305.786 31.4277C306.846 30.9442 307.759 30.219 308.523 29.252L311.798 32.808C311.268 33.5723 310.543 34.3053 309.623 35.0072C308.718 35.709 307.626 36.2861 306.347 36.7384C305.068 37.1751 303.61 37.3935 301.972 37.3935Z" fill="#2B2B2B"/>
<path d="M271.479 0.957031V36.9155H264.741V0.957031H271.479ZM287.435 11.6019L276.439 24.1417L270.543 30.1075L268.087 25.2413L272.766 19.2989L279.34 11.6019H287.435ZM280.439 36.9155L272.953 25.2179L277.609 21.1471L288.207 36.9155H280.439Z" fill="#2B2B2B"/>
<path d="M249.764 32.1296C250.59 32.1296 251.323 31.9736 251.963 31.6617C252.602 31.3341 253.101 30.8818 253.46 30.3047C253.834 29.7121 254.029 29.018 254.045 28.2226H260.385C260.369 30.0006 259.894 31.5837 258.958 32.9718C258.022 34.3443 256.767 35.4283 255.191 36.2237C253.616 37.0036 251.854 37.3935 249.904 37.3935C247.939 37.3935 246.223 37.066 244.757 36.4109C243.307 35.7558 242.098 34.8512 241.131 33.697C240.164 32.5273 239.438 31.1704 238.955 29.6263C238.471 28.0666 238.23 26.3977 238.23 24.6197V23.9412C238.23 22.1476 238.471 20.4787 238.955 18.9347C239.438 17.375 240.164 16.0181 241.131 14.8639C242.098 13.6941 243.307 12.7817 244.757 12.1266C246.208 11.4716 247.908 11.144 249.857 11.144C251.932 11.144 253.749 11.5418 255.308 12.3372C256.884 13.1326 258.116 14.2712 259.005 15.7529C259.909 17.219 260.369 18.9581 260.385 20.97H254.045C254.029 20.1278 253.85 19.3636 253.507 18.6773C253.179 17.991 252.696 17.4452 252.056 17.0396C251.432 16.6185 250.66 16.408 249.74 16.408C248.758 16.408 247.954 16.6185 247.33 17.0396C246.707 17.4452 246.223 18.0066 245.88 18.7241C245.537 19.426 245.295 20.2292 245.155 21.1338C245.03 22.0228 244.968 22.9586 244.968 23.9412V24.6197C244.968 25.6023 245.03 26.5459 245.155 27.4505C245.28 28.3551 245.513 29.1584 245.857 29.8602C246.215 30.5621 246.707 31.1158 247.33 31.5213C247.954 31.9268 248.765 32.1296 249.764 32.1296Z" fill="#2B2B2B"/>
<path d="M226.877 31.2172V19.9407C226.877 19.1296 226.745 18.4356 226.48 17.8585C226.215 17.2658 225.801 16.8057 225.24 16.4782C224.694 16.1506 223.984 15.9869 223.111 15.9869C222.362 15.9869 221.715 16.1194 221.169 16.3846C220.623 16.6341 220.202 17.0007 219.906 17.4842C219.609 17.9521 219.461 18.5057 219.461 19.1452H212.723C212.723 18.069 212.973 17.0474 213.472 16.0804C213.971 15.1134 214.696 14.2634 215.648 13.5304C216.599 12.7817 217.73 12.1968 219.04 11.7757C220.366 11.3546 221.847 11.144 223.485 11.144C225.45 11.144 227.197 11.4716 228.726 12.1266C230.254 12.7817 231.455 13.7643 232.329 15.0744C233.218 16.3846 233.662 18.0222 233.662 19.9874V30.8194C233.662 32.2076 233.748 33.3461 233.919 34.2351C234.091 35.1086 234.341 35.8728 234.668 36.5279V36.9256H227.86C227.532 36.2393 227.283 35.3815 227.111 34.3521C226.955 33.3071 226.877 32.2621 226.877 31.2172ZM227.766 21.5081L227.813 25.3216H224.047C223.158 25.3216 222.386 25.4229 221.73 25.6257C221.075 25.8285 220.537 26.117 220.116 26.4913C219.695 26.85 219.383 27.2712 219.18 27.7547C218.993 28.2382 218.9 28.7685 218.9 29.3455C218.9 29.9226 219.032 30.4451 219.297 30.913C219.563 31.3653 219.945 31.7241 220.444 31.9892C220.943 32.2387 221.528 32.3635 222.198 32.3635C223.212 32.3635 224.093 32.1608 224.842 31.7552C225.591 31.3497 226.168 30.8506 226.573 30.2579C226.994 29.6653 227.213 29.1038 227.228 28.5735L229.006 31.4277C228.757 32.0672 228.414 32.73 227.977 33.4163C227.556 34.1026 227.018 34.7498 226.363 35.3581C225.708 35.9508 224.92 36.4421 224 36.832C223.08 37.2063 221.988 37.3935 220.724 37.3935C219.118 37.3935 217.66 37.0738 216.35 36.4343C215.055 35.7792 214.026 34.8824 213.261 33.7438C212.513 32.5897 212.138 31.2795 212.138 29.8134C212.138 28.4877 212.388 27.3102 212.887 26.2808C213.386 25.2514 214.119 24.3857 215.086 23.6839C216.069 22.9664 217.293 22.4283 218.759 22.0696C220.225 21.6953 221.925 21.5081 223.859 21.5081H227.766Z" fill="#2B2B2B"/>
<path d="M202.756 17.1332V36.9256H196.019V11.6119H202.359L202.756 17.1332ZM210.383 11.4482L210.266 17.6947C209.939 17.6479 209.541 17.6089 209.073 17.5777C208.621 17.5309 208.207 17.5075 207.833 17.5075C206.882 17.5075 206.055 17.6323 205.353 17.8819C204.667 18.1158 204.09 18.4668 203.622 18.9347C203.17 19.4026 202.827 19.9718 202.593 20.6425C202.374 21.3132 202.249 22.0774 202.218 22.9352L200.861 22.5141C200.861 20.8765 201.025 19.3714 201.353 17.9988C201.68 16.6107 202.156 15.402 202.78 14.3726C203.419 13.3432 204.199 12.5478 205.119 11.9863C206.04 11.4248 207.092 11.144 208.278 11.144C208.652 11.144 209.034 11.1752 209.424 11.2376C209.814 11.2844 210.134 11.3546 210.383 11.4482Z" fill="#2B2B2B"/>
<path d="M183.148 2.88208V36.9455H176.153V2.88208H183.148ZM193.629 2.88208V8.37996H165.835V2.88208H193.629Z" fill="#2B2B2B"/>
<path d="M152.093 11.5924V16.365H137.354V11.5924H152.093ZM141.004 5.34583H147.741V29.2792C147.741 30.0122 147.835 30.5737 148.022 30.9636C148.225 31.3535 148.521 31.6265 148.911 31.7824C149.301 31.9228 149.792 31.993 150.385 31.993C150.806 31.993 151.181 31.9774 151.508 31.9462C151.851 31.8994 152.14 31.8526 152.374 31.8058L152.397 36.7656C151.82 36.9528 151.196 37.101 150.526 37.2101C149.855 37.3193 149.114 37.3739 148.303 37.3739C146.821 37.3739 145.527 37.1322 144.419 36.6486C143.328 36.1496 142.485 35.3541 141.893 34.2623C141.3 33.1706 141.004 31.7357 141.004 29.9576V5.34583Z" fill="#2B2B2B"/>
<path d="M125.008 37.3935C123.043 37.3935 121.28 37.0816 119.721 36.4577C118.161 35.8182 116.835 34.937 115.743 33.814C114.667 32.6911 113.841 31.3887 113.264 29.907C112.686 28.4097 112.398 26.8189 112.398 25.1344V24.1986C112.398 22.2802 112.671 20.5255 113.217 18.9347C113.763 17.3438 114.543 15.9635 115.556 14.7937C116.586 13.6239 117.833 12.7271 119.3 12.1032C120.766 11.4638 122.419 11.144 124.259 11.144C126.053 11.144 127.644 11.4404 129.032 12.0331C130.42 12.6257 131.582 13.468 132.518 14.5597C133.469 15.6515 134.187 16.9617 134.67 18.4901C135.154 20.003 135.395 21.6875 135.395 23.5435V26.3509H115.276V21.8591H128.775V21.3444C128.775 20.4086 128.603 19.5741 128.26 18.8411C127.932 18.0924 127.433 17.4997 126.763 17.063C126.092 16.6263 125.234 16.408 124.189 16.408C123.3 16.408 122.536 16.6029 121.896 16.9929C121.257 17.3828 120.734 17.9287 120.329 18.6305C119.939 19.3324 119.643 20.159 119.44 21.1104C119.253 22.0462 119.159 23.0756 119.159 24.1986V25.1344C119.159 26.1482 119.3 27.084 119.58 27.9418C119.877 28.7996 120.29 29.5405 120.82 30.1644C121.366 30.7882 122.021 31.2717 122.785 31.6149C123.565 31.958 124.446 32.1296 125.429 32.1296C126.646 32.1296 127.776 31.8956 128.821 31.4277C129.882 30.9442 130.794 30.219 131.559 29.252L134.834 32.808C134.304 33.5723 133.578 34.3053 132.658 35.0072C131.754 35.709 130.662 36.2861 129.383 36.7384C128.104 37.1751 126.646 37.3935 125.008 37.3935Z" fill="#2B2B2B"/>
<path d="M101.569 11.6119H107.675V36.0834C107.675 38.3917 107.161 40.3491 106.131 41.9556C105.118 43.5776 103.698 44.802 101.873 45.6286C100.049 46.4709 97.9275 46.892 95.51 46.892C94.4494 46.892 93.3264 46.7516 92.141 46.4709C90.9713 46.1901 89.8483 45.7534 88.7721 45.1607C87.7116 44.568 86.8225 43.8194 86.1051 42.9148L89.0763 38.9376C89.8561 39.8422 90.7607 40.5441 91.7901 41.0432C92.8195 41.5579 93.9581 41.8152 95.2058 41.8152C96.4224 41.8152 97.4518 41.589 98.294 41.1367C99.1362 40.7 99.7835 40.0528 100.236 39.1949C100.688 38.3527 100.914 37.3311 100.914 36.1302V17.4608L101.569 11.6119ZM84.5376 24.5729V24.0816C84.5376 22.1476 84.7715 20.393 85.2395 18.8177C85.723 17.2268 86.4014 15.8621 87.2748 14.7235C88.1639 13.5849 89.24 12.7037 90.5034 12.0799C91.7667 11.456 93.1938 11.144 94.7847 11.144C96.4692 11.144 97.8807 11.456 99.0192 12.0799C100.158 12.7037 101.094 13.5927 101.827 14.7469C102.56 15.8855 103.129 17.2346 103.535 18.7943C103.956 20.3384 104.283 22.0306 104.517 23.8711V24.9472C104.283 26.7097 103.932 28.3473 103.464 29.8602C102.996 31.3731 102.38 32.6989 101.616 33.8374C100.852 34.9604 99.9005 35.8338 98.7619 36.4577C97.6389 37.0816 96.2976 37.3935 94.7379 37.3935C93.1782 37.3935 91.7667 37.0738 90.5034 36.4343C89.2556 35.7948 88.1873 34.898 87.2982 33.7438C86.4092 32.5897 85.723 31.2328 85.2395 29.6731C84.7715 28.1134 84.5376 26.4133 84.5376 24.5729ZM91.2754 24.0816V24.5729C91.2754 25.6179 91.3768 26.5927 91.5796 27.4973C91.7823 28.4019 92.0943 29.2052 92.5154 29.907C92.9521 30.5933 93.4902 31.1314 94.1296 31.5213C94.7847 31.8956 95.5568 32.0828 96.4458 32.0828C97.6779 32.0828 98.6839 31.8254 99.4638 31.3107C100.244 30.7804 100.828 30.0552 101.218 29.135C101.608 28.2148 101.834 27.1542 101.897 25.9532V22.8885C101.866 21.9059 101.733 21.0246 101.499 20.2448C101.265 19.4494 100.938 18.7709 100.517 18.2094C100.095 17.6479 99.5495 17.2112 98.8789 16.8993C98.2082 16.5873 97.4128 16.4314 96.4926 16.4314C95.6035 16.4314 94.8315 16.6341 94.1764 17.0396C93.537 17.4296 92.9989 17.9677 92.5622 18.6539C92.141 19.3402 91.8213 20.1512 91.603 21.087C91.3846 22.0072 91.2754 23.0054 91.2754 24.0816Z" fill="#2B2B2B"/>
<path d="M73.0492 31.4053V0.991455H79.8338V36.9265H73.7277L73.0492 31.4053ZM57.0469 24.5739V24.0826C57.0469 22.1485 57.2652 20.3939 57.7019 18.8186C58.1387 17.2277 58.7781 15.863 59.6204 14.7245C60.4626 13.5859 61.4998 12.7047 62.7319 12.0808C63.9641 11.4569 65.3678 11.145 66.9431 11.145C68.4248 11.145 69.7193 11.4569 70.8267 12.0808C71.9496 12.7047 72.901 13.5937 73.6809 14.7479C74.4763 15.8864 75.1158 17.2355 75.5993 18.7952C76.0828 20.3393 76.4337 22.0316 76.6521 23.872V24.9482C76.4337 26.7106 76.0828 28.3483 75.5993 29.8612C75.1158 31.3741 74.4763 32.6998 73.6809 33.8384C72.901 34.9613 71.9496 35.8348 70.8267 36.4586C69.7037 37.0825 68.3936 37.3944 66.8963 37.3944C65.321 37.3944 63.9173 37.0747 62.6851 36.4352C61.4686 35.7958 60.4392 34.8989 59.597 33.7448C58.7703 32.5906 58.1387 31.2337 57.7019 29.674C57.2652 28.1143 57.0469 26.4143 57.0469 24.5739ZM63.7847 24.0826V24.5739C63.7847 25.6188 63.8627 26.5936 64.0187 27.4983C64.1902 28.4029 64.4632 29.2061 64.8375 29.908C65.2274 30.5942 65.7265 31.1323 66.3348 31.5222C66.9587 31.8966 67.7151 32.0837 68.6041 32.0837C69.7583 32.0837 70.7097 31.8264 71.4583 31.3117C72.207 30.7814 72.7763 30.0561 73.1662 29.1359C73.5717 28.2157 73.8057 27.1551 73.868 25.9542V22.8894C73.8213 21.9068 73.6809 21.0256 73.4469 20.2457C73.2286 19.4503 72.901 18.7718 72.4643 18.2103C72.0432 17.6489 71.5129 17.2122 70.8735 16.9002C70.2496 16.5883 69.5087 16.4323 68.6509 16.4323C67.7775 16.4323 67.0288 16.6351 66.405 17.0406C65.7811 17.4305 65.2742 17.9686 64.8843 18.6549C64.51 19.3411 64.2292 20.1522 64.0421 21.088C63.8705 22.0082 63.7847 23.0064 63.7847 24.0826Z" fill="#2B2B2B"/>
<path d="M45.7622 30.8452V11.5909H52.5V36.9046H46.1599L45.7622 30.8452ZM46.5108 25.6515L48.4994 25.6047C48.4994 27.2891 48.3044 28.8566 47.9145 30.3071C47.5246 31.742 46.9397 32.9898 46.1599 34.0504C45.38 35.0954 44.3974 35.9142 43.2121 36.5069C42.0267 37.0839 40.6308 37.3725 39.0243 37.3725C37.7922 37.3725 36.6536 37.2009 35.6086 36.8578C34.5792 36.4991 33.6902 35.9454 32.9416 35.1967C32.2085 34.4325 31.6314 33.4577 31.2103 32.2723C30.8048 31.0714 30.6021 29.6287 30.6021 27.9442V11.5909H37.3399V27.991C37.3399 28.7396 37.4257 29.3713 37.5972 29.886C37.7844 30.4007 38.0417 30.8218 38.3693 31.1494C38.6968 31.4769 39.0789 31.7108 39.5156 31.8512C39.9679 31.9916 40.467 32.0618 41.0129 32.0618C42.401 32.0618 43.4928 31.781 44.2883 31.2195C45.0993 30.6581 45.6686 29.8938 45.9961 28.9268C46.3392 27.9442 46.5108 26.8524 46.5108 25.6515Z" fill="#2B2B2B"/>
<path d="M13.4945 21.996H4.74465L4.69785 17.1766H12.044C13.3385 17.1766 14.3991 17.0128 15.2257 16.6853C16.0523 16.3421 16.6684 15.8508 17.0739 15.2114C17.495 14.5563 17.7056 13.7609 17.7056 12.8251C17.7056 11.7645 17.5028 10.9066 17.0973 10.2516C16.7074 9.59651 16.0913 9.12081 15.2491 8.82447C14.4225 8.52813 13.3541 8.37996 12.044 8.37996H7.17775V36.9455H0.15918V2.88208H12.044C14.0248 2.88208 15.795 3.06924 17.3547 3.44357C18.93 3.81789 20.2635 4.38717 21.3553 5.15142C22.447 5.91566 23.2815 6.88267 23.8586 8.05243C24.4356 9.20659 24.7242 10.5791 24.7242 12.17C24.7242 13.5737 24.4044 14.8682 23.765 16.0536C23.1411 17.239 22.1507 18.206 20.7938 18.9546C19.4524 19.7033 17.6978 20.1166 15.5298 20.1946L13.4945 21.996ZM13.1903 36.9455H2.82624L5.56348 31.4711H13.1903C14.4225 31.4711 15.4285 31.2761 16.2083 30.8862C16.9882 30.4807 17.5652 29.9348 17.9396 29.2485C18.3139 28.5623 18.501 27.7746 18.501 26.8856C18.501 25.8874 18.3295 25.0218 17.9863 24.2887C17.6588 23.5557 17.1285 22.9942 16.3955 22.6043C15.6624 22.1987 14.6954 21.996 13.4945 21.996H6.73324L6.78003 17.1766H15.2023L16.8166 19.0716C18.891 19.0404 20.5598 19.4069 21.8232 20.1712C23.1021 20.9198 24.0301 21.8946 24.6072 23.0956C25.1999 24.2965 25.4962 25.5833 25.4962 26.9558C25.4962 29.1393 25.0205 30.9798 24.0691 32.4771C23.1177 33.9588 21.7218 35.0739 19.8814 35.8226C18.0565 36.5712 15.8262 36.9455 13.1903 36.9455Z" fill="#2B2B2B"/>
</svg>
