<svg width="128" height="128" viewBox="0 0 128 128" fill="none" xmlns="http://www.w3.org/2000/svg">
<path d="M120.998 63.5001C120.998 50.9588 116.167 38.931 107.569 30.0629C98.9713 21.1948 87.3099 16.2128 75.1506 16.2128C62.9913 16.2128 51.33 21.1948 42.732 30.0629C34.134 38.931 29.3037 50.9588 29.3037 63.5001H43.6311C48.3787 63.5001 52.0813 59.3965 53.8203 54.8399C54.962 51.8483 56.6945 49.099 58.9412 46.7814C63.2402 42.3474 69.071 39.8564 75.1506 39.8564C81.2303 39.8564 87.0611 42.3474 91.3601 46.7814C95.6591 51.2154 98.074 57.2294 98.074 63.5001H120.998Z" fill="url(#paint0_linear_3012_437)"/>
<path d="M94.5891 81.5959C96.8932 75.8587 98.0792 69.7097 98.0792 63.5H121C121 89.616 100.474 110.787 75.1532 110.787C71.1879 110.787 67.3399 110.268 63.6704 109.292C65.7466 108.74 67.7873 108.037 69.777 107.188C75.3394 104.811 80.3935 101.328 84.6508 96.9371C88.9082 92.546 92.2854 87.3331 94.5891 81.5959Z" fill="#FBCF8E"/>
<path d="M6.38379 63.5C6.38379 69.71 7.56965 75.859 9.87367 81.5962C12.1777 87.3334 15.5548 92.5463 19.812 96.9374C24.0693 101.328 29.1235 104.811 34.6858 107.188C40.2482 109.564 46.2099 110.787 52.2308 110.787C58.2513 110.787 64.213 109.564 69.7755 107.188C75.3379 104.811 80.3921 101.328 84.6494 96.9374C88.9067 92.5463 92.2836 87.3334 94.5877 81.5962C96.8917 75.859 98.0778 69.71 98.0778 63.5H83.7503C79.0027 63.5 75.3001 67.6036 73.5611 72.1599C73.5118 72.2898 73.4609 72.419 73.4092 72.5483C72.2572 75.4167 70.5687 78.0233 68.4399 80.2187C66.3114 82.4141 63.7842 84.1559 61.0031 85.3441C58.2221 86.5323 55.2412 87.1438 52.2308 87.1438C49.2204 87.1438 46.2395 86.5323 43.4584 85.3441C40.677 84.1559 38.1501 82.4141 36.0213 80.2187C33.8927 78.0233 32.2042 75.4167 31.0522 72.5483C29.9002 69.6795 29.3072 66.605 29.3072 63.5H6.38379Z" fill="url(#paint1_linear_3012_437)"/>
<path d="M6.38965 63.5001C6.38965 37.3839 26.916 16.2128 52.2364 16.2128C56.2008 16.2128 60.0476 16.7317 63.7168 17.7074C55.8438 19.7993 48.5811 24.0327 42.7343 30.0629C34.1364 38.9309 29.3061 50.9588 29.3061 63.5001H6.38965Z" fill="#73E5E2"/>
<defs>
<linearGradient id="paint0_linear_3012_437" x1="120.998" y1="39.8564" x2="29.3037" y2="39.8564" gradientUnits="userSpaceOnUse">
<stop stop-color="#73E5E2"/>
<stop offset="1" stop-color="#394F87"/>
</linearGradient>
<linearGradient id="paint1_linear_3012_437" x1="6.38379" y1="87.1438" x2="98.0778" y2="87.1438" gradientUnits="userSpaceOnUse">
<stop stop-color="#FBDC8E"/>
<stop offset="1" stop-color="#FB958E"/>
</linearGradient>
</defs>
</svg>
